<svg width="200" height="200" viewBox="0 0 200 200" fill="none" xmlns="http://www.w3.org/2000/svg">
<path d="M200 8.74228e-06L200 200L0 200L8.74228e-06 0L200 8.74228e-06Z" fill="#D9D9D9"/>
<path d="M150 100C122.386 100 100 77.6142 100 50C100 22.3858 122.386 5.34965e-06 150 6.55671e-06C177.614 7.76376e-06 200 22.3858 200 50C200 77.6142 177.614 100 150 100Z" fill="#0A1128"/>
<path d="M50 100C22.3858 100 5.34965e-06 77.6142 6.55671e-06 50C7.76376e-06 22.3858 22.3858 9.78513e-07 50 2.18557e-06C77.6142 3.39263e-06 100 22.3858 100 50C100 77.6142 77.6142 100 50 100Z" fill="#05668D"/>
<path d="M50 200C22.3858 200 9.78513e-07 177.614 2.18557e-06 150C3.39263e-06 122.386 22.3858 100 50 100C77.6142 100 100 122.386 100 150C100 177.614 77.6142 200 50 200Z" fill="#0A1128"/>
<path d="M150 200C122.386 200 100 177.614 100 150C100 122.386 122.386 100 150 100C177.614 100 200 122.386 200 150C200 177.614 177.614 200 150 200Z" fill="#05668D"/>
</svg>
