<svg width="200" height="200" viewBox="0 0 200 200" fill="none" xmlns="http://www.w3.org/2000/svg">
<path d="M0 0H200V200H0V0Z" fill="#F2F2F2"/>
<path d="M100 50C100 77.6142 77.6142 100 50 100C22.3858 100 0 77.6142 0 50C0 22.3858 22.3858 0 50 0C77.6142 0 100 22.3858 100 50Z" fill="#0A1128"/>
<path d="M100 150C100 177.614 77.6142 200 50 200C22.3858 200 0 177.614 0 150C0 122.386 22.3858 100 50 100C77.6142 100 100 122.386 100 150Z" fill="#05668D"/>
<path d="M200 150C200 177.614 177.614 200 150 200C122.386 200 100 177.614 100 150C100 122.386 122.386 100 150 100C177.614 100 200 122.386 200 150Z" fill="#0A1128"/>
<path d="M200 50C200 77.6142 177.614 100 150 100C122.386 100 100 77.6142 100 50C100 22.3858 122.386 0 150 0C177.614 0 200 22.3858 200 50Z" fill="#05668D"/>
</svg>
